<?xml version="1.0" encoding="utf-8"?>
<!-- Generator: Adobe Illustrator 23.1.0, SVG Export Plug-In . SVG Version: 6.00 Build 0)  -->
<svg version="1.1" id="Layer_1" xmlns="http://www.w3.org/2000/svg" xmlns:xlink="http://www.w3.org/1999/xlink" x="0px" y="0px"
	 viewBox="0 0 1200 1200" enable-background="new 0 0 1200 1200" xml:space="preserve">
<g>
	<path fill="#FFFFFF" d="M963.486,1056.355l71.191-626.711c42.051-12.836,72.642-51.115,72.642-96.216v-32.794
		c0-55.609-46.468-100.851-103.582-100.851H737.208c5.483-13.06,8.542-27.454,8.542-42.578C745.749,98.092,699.281,50,642.167,50
		h-84.375c-57.094,0-103.541,48.092-103.541,107.205c0,15.124,3.057,29.517,8.538,42.578H196.264
		c-57.114,0-103.582,45.242-103.582,100.851v32.794c0,44.987,30.434,83.185,72.319,96.117l71.514,626.79
		c5.943,52.523,53.149,93.666,107.473,93.666h512.026C910.266,1150,957.472,1108.882,963.486,1056.355z"/>
	<g>
		<path fill="#231F5D" d="M642.166,92.469h-84.375c-33.643,0-61.068,29.035-61.068,64.736c0,35.701,27.425,64.736,61.068,64.736
			h84.375c33.688,0,61.112-29.035,61.112-64.736C703.278,121.504,675.854,92.469,642.166,92.469z M642.166,170.089h-84.375
			c-11.991,0-19.641-8.455-19.641-12.884c0-4.429,7.65-12.885,19.641-12.885h84.375c12.034,0,19.684,8.455,19.684,12.885
			C661.85,161.634,654.2,170.089,642.166,170.089z"/>
		<path fill="#CD518B" d="M661.85,157.205c0,4.429-7.65,12.884-19.684,12.884h-84.375c-11.991,0-19.641-8.455-19.641-12.884
			c0-4.429,7.65-12.885,19.641-12.885h84.375C654.2,144.321,661.85,152.776,661.85,157.205z"/>
		<path fill="#231F5D" d="M1003.738,242.252H196.263c-33.688,0-61.113,26.217-61.113,58.383v32.793
			c0,32.167,27.425,58.338,61.113,58.338h7.292c0.939,9.216,2.192,20.49,3.087,28.095l72.073,631.7
			c3.49,30.869,32.749,55.967,65.273,55.967h512.026c32.435,0,61.739-25.098,65.273-55.967l72.027-634.071
			c0.09-0.626,1.611-14.137,2.863-25.724h7.562c33.688,0,61.112-26.172,61.112-58.338v-32.793
			C1064.85,268.468,1037.426,242.252,1003.738,242.252z M350.43,1067.354h-6.442c-11.632,0-22.906-9.44-24.159-20.177l-72.027-631.7
			c-1.029-9.171-1.88-16.956-2.55-23.219c5.503-0.313,11.677-0.492,17.985-0.492h87.194V1067.354z M496.723,1067.354H391.857
			V391.766h104.866V1067.354z M643.016,1067.354H538.15V391.766h104.866V1067.354z M789.31,1067.354H684.443V391.766H789.31
			V1067.354z M952.2,412.882l-72.073,634.295c-1.253,10.961-12.303,20.177-24.113,20.177h-25.278V391.766h106.03
			c6.666,0,12.615,0.134,17.716,0.313C953.855,398.074,953.095,405.143,952.2,412.882z M1023.423,333.428
			c0,10.111-8.813,18.298-19.684,18.298H196.263c-10.872,0-19.685-8.187-19.685-18.298v-32.793c0-10.066,8.813-18.253,19.685-18.253
			h807.475c10.871,0,19.684,8.187,19.684,18.253V333.428z"/>
		<rect x="684.443" y="391.766" fill="#CFA8C8" width="104.867" height="675.588"/>
		<rect x="391.857" y="391.766" fill="#CFA8C8" width="104.866" height="675.588"/>
		<path fill="#CD518B" d="M350.43,391.766v675.588h-6.442c-11.632,0-22.906-9.44-24.159-20.177l-72.027-631.7
			c-1.029-9.171-1.88-16.956-2.55-23.219c5.503-0.313,11.677-0.492,17.985-0.492H350.43z"/>
		<path fill="#CD518B" d="M954.482,392.079c-0.627,5.995-1.387,13.063-2.282,20.803l-72.073,634.295
			c-1.253,10.961-12.303,20.177-24.113,20.177h-25.278V391.766h106.03C943.432,391.766,949.381,391.9,954.482,392.079z"/>
		<rect x="538.15" y="391.766" fill="#CD518B" width="104.866" height="675.588"/>
		<path fill="#8BC5C3" d="M1023.423,300.635v32.793c0,10.111-8.813,18.298-19.684,18.298H196.263
			c-10.872,0-19.685-8.187-19.685-18.298v-32.793c0-10.066,8.813-18.253,19.685-18.253h807.475
			C1014.609,282.382,1023.423,290.569,1023.423,300.635z"/>
	</g>
</g>
</svg>
